<svg xmlns="http://www.w3.org/2000/svg" width="1200" height="900" viewBox="0 0 1200 900" role="img" aria-label="PlayTrivia picture round geography illustration">
  <defs>
    <linearGradient id="bg" x1="0" y1="0" x2="1" y2="1">
      <stop offset="0%" stop-color="#fffdf1"/>
      <stop offset="100%" stop-color="#e9ffe0"/>
    </linearGradient>
  </defs>
  <rect width="1200" height="900" fill="url(#bg)"/>
  <rect x="170" y="130" width="860" height="640" rx="48" fill="#ffffff" opacity="0.9"/>
  <circle cx="600" cy="430" r="186" fill="#59b0f7" opacity="0.22"/>
  <path d="M470 360c52-42 118-40 170-18 51 22 83 54 101 106 18 53 8 99-26 140-49 59-140 80-224 44-75-32-122-118-101-200 11-43 35-56 80-72z" fill="#ffffff" opacity="0.9"/>
  <circle cx="540" cy="420" r="22" fill="#fb64d0" opacity="0.45"/>
  <circle cx="690" cy="485" r="20" fill="#e2ef5f" opacity="0.6"/>
</svg>
